<svg xmlns="http://www.w3.org/2000/svg" width="80" height="10" viewBox="0 0 80 10">
  <metadata><?xpacket begin="﻿" id="W5M0MpCehiHzreSzNTczkc9d"?>
<x:xmpmeta xmlns:x="adobe:ns:meta/" x:xmptk="Adobe XMP Core 5.6-c138 79.159824, 2016/09/14-01:09:01        ">
   <rdf:RDF xmlns:rdf="http://www.w3.org/1999/02/22-rdf-syntax-ns#">
      <rdf:Description rdf:about=""/>
   </rdf:RDF>
</x:xmpmeta>
                                                                                                    
                                                                                                    
                                                                                                    
                                                                                                    
                                                                                                    
                                                                                                    
                                                                                                    
                                                                                                    
                                                                                                    
                                                                                                    
                                                                                                    
                                                                                                    
                                                                                                    
                                                                                                    
                                                                                                    
                                                                                                    
                                                                                                    
                                                                                                    
                                                                                                    
                                                                                                    
                           
<?xpacket end="w"?></metadata>
<defs>
    <style>
      .cls-1 {
        fill: #3078a6;
        fill-rule: evenodd;
      }
    </style>
  </defs>
  <path id="Ellipse_1245_copy_8" data-name="Ellipse 1245 copy 8" class="cls-1" d="M10-10A10,10,0,0,1,20,0,10,10,0,0,1,10,10,10,10,0,0,1,0,0,10,10,0,0,1,10-10Zm20,0A10,10,0,0,1,40,0,10,10,0,0,1,30,10,10,10,0,0,1,20,0,10,10,0,0,1,30-10Zm20,0A10,10,0,0,1,60,0,10,10,0,0,1,50,10,10,10,0,0,1,40,0,10,10,0,0,1,50-10Zm20,0A10,10,0,0,1,80,0,10,10,0,0,1,70,10,10,10,0,0,1,60,0,10,10,0,0,1,70-10Zm20,0A10,10,0,0,1,100,0,10,10,0,0,1,90,10,10,10,0,0,1,80,0,10,10,0,0,1,90-10Zm20,0A10,10,0,0,1,120,0a10,10,0,0,1-20,0A10,10,0,0,1,110-10Zm20,0A10,10,0,0,1,140,0a10,10,0,0,1-20,0A10,10,0,0,1,130-10Zm20,0A10,10,0,0,1,160,0a10,10,0,0,1-20,0A10,10,0,0,1,150-10Zm20,0A10,10,0,0,1,180,0a10,10,0,0,1-20,0A10,10,0,0,1,170-10Zm20,0A10,10,0,0,1,200,0a10,10,0,0,1-20,0A10,10,0,0,1,190-10Zm20,0A10,10,0,0,1,220,0a10,10,0,0,1-20,0A10,10,0,0,1,210-10Zm20,0A10,10,0,0,1,240,0a10,10,0,0,1-20,0A10,10,0,0,1,230-10Zm20,0A10,10,0,0,1,260,0a10,10,0,0,1-20,0A10,10,0,0,1,250-10Zm20,0A10,10,0,0,1,280,0a10,10,0,0,1-20,0A10,10,0,0,1,270-10Zm20,0A10,10,0,0,1,300,0a10,10,0,0,1-20,0A10,10,0,0,1,290-10Zm20,0A10,10,0,0,1,320,0a10,10,0,0,1-20,0A10,10,0,0,1,310-10Zm19,0A10,10,0,0,1,339,0a10,10,0,0,1-20,0A10,10,0,0,1,329-10Zm20,0A10,10,0,0,1,359,0a10,10,0,0,1-20,0A10,10,0,0,1,349-10Zm20,0A10,10,0,0,1,379,0a10,10,0,0,1-20,0A10,10,0,0,1,369-10Zm20,0A10,10,0,0,1,399,0a10,10,0,0,1-20,0A10,10,0,0,1,389-10Zm20,0A10,10,0,0,1,419,0a10,10,0,0,1-20,0A10,10,0,0,1,409-10Zm20,0A10,10,0,0,1,439,0a10,10,0,0,1-20,0A10,10,0,0,1,429-10Zm20,0A10,10,0,0,1,459,0a10,10,0,0,1-20,0A10,10,0,0,1,449-10Zm20,0A10,10,0,0,1,479,0a10,10,0,0,1-20,0A10,10,0,0,1,469-10Zm20,0A10,10,0,0,1,499,0a10,10,0,0,1-20,0A10,10,0,0,1,489-10Zm20,0A10,10,0,0,1,519,0a10,10,0,0,1-20,0A10,10,0,0,1,509-10Zm20,0A10,10,0,0,1,539,0a10,10,0,0,1-20,0A10,10,0,0,1,529-10Zm20,0A10,10,0,0,1,559,0a10,10,0,0,1-20,0A10,10,0,0,1,549-10Zm20,0A10,10,0,0,1,579,0a10,10,0,0,1-20,0A10,10,0,0,1,569-10Zm20,0A10,10,0,0,1,599,0a10,10,0,0,1-20,0A10,10,0,0,1,589-10Zm20,0A10,10,0,0,1,619,0a10,10,0,0,1-20,0A10,10,0,0,1,609-10Zm20,0A10,10,0,0,1,639,0a10,10,0,0,1-20,0A10,10,0,0,1,629-10Zm20,0A10,10,0,0,1,659,0a10,10,0,0,1-20,0A10,10,0,0,1,649-10Zm20,0A10,10,0,0,1,679,0a10,10,0,0,1-20,0A10,10,0,0,1,669-10Zm20,0A10,10,0,0,1,699,0a10,10,0,0,1-20,0A10,10,0,0,1,689-10Zm20,0A10,10,0,0,1,719,0a10,10,0,0,1-20,0A10,10,0,0,1,709-10Zm20,0A10,10,0,0,1,739,0a10,10,0,0,1-20,0A10,10,0,0,1,729-10Zm20,0A10,10,0,0,1,759,0a10,10,0,0,1-20,0A10,10,0,0,1,749-10Zm20,0A10,10,0,0,1,779,0a10,10,0,0,1-20,0A10,10,0,0,1,769-10Zm20,0A10,10,0,0,1,799,0a10,10,0,0,1-20,0A10,10,0,0,1,789-10Zm20,0A10,10,0,0,1,819,0a10,10,0,0,1-20,0A10,10,0,0,1,809-10Zm20,0A10,10,0,0,1,839,0a10,10,0,0,1-20,0A10,10,0,0,1,829-10Zm20,0A10,10,0,0,1,859,0a10,10,0,0,1-20,0A10,10,0,0,1,849-10Zm20,0A10,10,0,0,1,879,0a10,10,0,0,1-20,0A10,10,0,0,1,869-10Zm20,0A10,10,0,0,1,899,0a10,10,0,0,1-20,0A10,10,0,0,1,889-10Zm20,0A10,10,0,0,1,919,0a10,10,0,0,1-20,0A10,10,0,0,1,909-10Zm20,0A10,10,0,0,1,939,0a10,10,0,0,1-20,0A10,10,0,0,1,929-10Zm20,0A10,10,0,0,1,959,0a10,10,0,0,1-20,0A10,10,0,0,1,949-10Zm19,0A10,10,0,0,1,978,0a10,10,0,0,1-20,0A10,10,0,0,1,968-10Zm20,0A10,10,0,0,1,998,0a10,10,0,0,1-20,0A10,10,0,0,1,988-10Zm20,0a10,10,0,0,1,10,10,10,10,0,0,1-10,10A10,10,0,0,1,998,0,10,10,0,0,1,1008-10Zm20,0a10,10,0,0,1,10,10,10,10,0,0,1-10,10,10,10,0,0,1-10-10A10,10,0,0,1,1028-10Zm20,0a10,10,0,0,1,10,10,10,10,0,0,1-10,10,10,10,0,0,1-10-10A10,10,0,0,1,1048-10Zm20,0a10,10,0,0,1,10,10,10,10,0,0,1-10,10,10,10,0,0,1-10-10A10,10,0,0,1,1068-10Zm20,0a10,10,0,0,1,10,10,10,10,0,0,1-10,10,10,10,0,0,1-10-10A10,10,0,0,1,1088-10Zm20,0a10,10,0,0,1,10,10,10,10,0,0,1-10,10,10,10,0,0,1-10-10A10,10,0,0,1,1108-10Zm20,0a10,10,0,0,1,10,10,10,10,0,0,1-10,10,10,10,0,0,1-10-10A10,10,0,0,1,1128-10Zm20,0a10,10,0,0,1,10,10,10,10,0,0,1-10,10,10,10,0,0,1-10-10A10,10,0,0,1,1148-10Zm20,0a10,10,0,0,1,10,10,10,10,0,0,1-10,10,10,10,0,0,1-10-10A10,10,0,0,1,1168-10Zm20,0a10,10,0,0,1,10,10,10,10,0,0,1-10,10,10,10,0,0,1-10-10A10,10,0,0,1,1188-10Zm20,0a10,10,0,0,1,10,10,10,10,0,0,1-10,10,10,10,0,0,1-10-10A10,10,0,0,1,1208-10Zm20,0a10,10,0,0,1,10,10,10,10,0,0,1-10,10,10,10,0,0,1-10-10A10,10,0,0,1,1228-10Zm20,0a10,10,0,0,1,10,10,10,10,0,0,1-10,10,10,10,0,0,1-10-10A10,10,0,0,1,1248-10Zm20,0a10,10,0,0,1,10,10,10,10,0,0,1-10,10,10,10,0,0,1-10-10A10,10,0,0,1,1268-10Zm20,0a10,10,0,0,1,10,10,10,10,0,0,1-10,10,10,10,0,0,1-10-10A10,10,0,0,1,1288-10Zm20,0a10,10,0,0,1,10,10,10,10,0,0,1-10,10,10,10,0,0,1-10-10A10,10,0,0,1,1308-10Zm20,0a10,10,0,0,1,10,10,10,10,0,0,1-10,10,10,10,0,0,1-10-10A10,10,0,0,1,1328-10Zm20,0a10,10,0,0,1,10,10,10,10,0,0,1-10,10,10,10,0,0,1-10-10A10,10,0,0,1,1348-10Zm20,0a10,10,0,0,1,10,10,10,10,0,0,1-10,10,10,10,0,0,1-10-10A10,10,0,0,1,1368-10Zm20,0a10,10,0,0,1,10,10,10,10,0,0,1-10,10,10,10,0,0,1-10-10A10,10,0,0,1,1388-10Zm20,0a10,10,0,0,1,10,10,10,10,0,0,1-10,10,10,10,0,0,1-10-10A10,10,0,0,1,1408-10Zm20,0a10,10,0,0,1,10,10,10,10,0,0,1-10,10,10,10,0,0,1-10-10A10,10,0,0,1,1428-10Zm20,0a10,10,0,0,1,10,10,10,10,0,0,1-10,10,10,10,0,0,1-10-10A10,10,0,0,1,1448-10Zm20,0a10,10,0,0,1,10,10,10,10,0,0,1-10,10,10,10,0,0,1-10-10A10,10,0,0,1,1468-10Zm20,0a10,10,0,0,1,10,10,10,10,0,0,1-10,10,10,10,0,0,1-10-10A10,10,0,0,1,1488-10Zm20,0a10,10,0,0,1,10,10,10,10,0,0,1-10,10,10,10,0,0,1-10-10A10,10,0,0,1,1508-10Zm20,0a10,10,0,0,1,10,10,10,10,0,0,1-10,10,10,10,0,0,1-10-10A10,10,0,0,1,1528-10Zm20,0a10,10,0,0,1,10,10,10,10,0,0,1-10,10,10,10,0,0,1-10-10A10,10,0,0,1,1548-10Zm20,0a10,10,0,0,1,10,10,10,10,0,0,1-10,10,10,10,0,0,1-10-10A10,10,0,0,1,1568-10Zm20,0a10,10,0,0,1,10,10,10,10,0,0,1-10,10,10,10,0,0,1-10-10A10,10,0,0,1,1588-10Zm19,0a10,10,0,0,1,10,10,10,10,0,0,1-10,10,10,10,0,0,1-10-10A10,10,0,0,1,1607-10Zm20,0a10,10,0,0,1,10,10,10,10,0,0,1-10,10,10,10,0,0,1-10-10A10,10,0,0,1,1627-10Zm20,0a10,10,0,0,1,10,10,10,10,0,0,1-10,10,10,10,0,0,1-10-10A10,10,0,0,1,1647-10Zm20,0a10,10,0,0,1,10,10,10,10,0,0,1-10,10,10,10,0,0,1-10-10A10,10,0,0,1,1667-10Zm20,0a10,10,0,0,1,10,10,10,10,0,0,1-10,10,10,10,0,0,1-10-10A10,10,0,0,1,1687-10Zm20,0a10,10,0,0,1,10,10,10,10,0,0,1-10,10,10,10,0,0,1-10-10A10,10,0,0,1,1707-10Zm20,0a10,10,0,0,1,10,10,10,10,0,0,1-10,10,10,10,0,0,1-10-10A10,10,0,0,1,1727-10Zm20,0a10,10,0,0,1,10,10,10,10,0,0,1-10,10,10,10,0,0,1-10-10A10,10,0,0,1,1747-10Zm20,0a10,10,0,0,1,10,10,10,10,0,0,1-10,10,10,10,0,0,1-10-10A10,10,0,0,1,1767-10Zm20,0a10,10,0,0,1,10,10,10,10,0,0,1-10,10,10,10,0,0,1-10-10A10,10,0,0,1,1787-10Zm20,0a10,10,0,0,1,10,10,10,10,0,0,1-10,10,10,10,0,0,1-10-10A10,10,0,0,1,1807-10Zm20,0a10,10,0,0,1,10,10,10,10,0,0,1-10,10,10,10,0,0,1-10-10A10,10,0,0,1,1827-10Zm20,0a10,10,0,0,1,10,10,10,10,0,0,1-10,10,10,10,0,0,1-10-10A10,10,0,0,1,1847-10Zm20,0a10,10,0,0,1,10,10,10,10,0,0,1-10,10,10,10,0,0,1-10-10A10,10,0,0,1,1867-10Zm20,0a10,10,0,0,1,10,10,10,10,0,0,1-10,10,10,10,0,0,1-10-10A10,10,0,0,1,1887-10Zm20,0a10,10,0,0,1,10,10,10,10,0,0,1-10,10,10,10,0,0,1-10-10A10,10,0,0,1,1907-10Zm20,0a10,10,0,0,1,10,10,10,10,0,0,1-10,10,10,10,0,0,1-10-10A10,10,0,0,1,1927-10Zm20,0a10,10,0,0,1,10,10,10,10,0,0,1-10,10,10,10,0,0,1-10-10A10,10,0,0,1,1947-10Zm20,0a10,10,0,0,1,10,10,10,10,0,0,1-10,10,10,10,0,0,1-10-10A10,10,0,0,1,1967-10Zm20,0a10,10,0,0,1,10,10,10,10,0,0,1-10,10,10,10,0,0,1-10-10A10,10,0,0,1,1987-10Zm20,0a10,10,0,0,1,10,10,10,10,0,0,1-10,10,10,10,0,0,1-10-10A10,10,0,0,1,2007-10Zm20,0a10,10,0,0,1,10,10,10,10,0,0,1-10,10,10,10,0,0,1-10-10A10,10,0,0,1,2027-10Zm20,0a10,10,0,0,1,10,10,10,10,0,0,1-10,10,10,10,0,0,1-10-10A10,10,0,0,1,2047-10Zm20,0a10,10,0,0,1,10,10,10,10,0,0,1-10,10,10,10,0,0,1-10-10A10,10,0,0,1,2067-10Zm20,0a10,10,0,0,1,10,10,10,10,0,0,1-10,10,10,10,0,0,1-10-10A10,10,0,0,1,2087-10Zm20,0a10,10,0,0,1,10,10,10,10,0,0,1-10,10,10,10,0,0,1-10-10A10,10,0,0,1,2107-10Zm20,0a10,10,0,0,1,10,10,10,10,0,0,1-10,10,10,10,0,0,1-10-10A10,10,0,0,1,2127-10Zm20,0a10,10,0,0,1,10,10,10,10,0,0,1-10,10,10,10,0,0,1-10-10A10,10,0,0,1,2147-10Zm20,0a10,10,0,0,1,10,10,10,10,0,0,1-10,10,10,10,0,0,1-10-10A10,10,0,0,1,2167-10Zm20,0a10,10,0,0,1,10,10,10,10,0,0,1-10,10,10,10,0,0,1-10-10A10,10,0,0,1,2187-10Zm20,0a10,10,0,0,1,10,10,10,10,0,0,1-10,10,10,10,0,0,1-10-10A10,10,0,0,1,2207-10Zm20,0a10,10,0,0,1,10,10,10,10,0,0,1-10,10,10,10,0,0,1-10-10A10,10,0,0,1,2227-10Zm19,0a10,10,0,0,1,10,10,10,10,0,0,1-10,10,10,10,0,0,1-10-10A10,10,0,0,1,2246-10Zm20,0a10,10,0,0,1,10,10,10,10,0,0,1-10,10,10,10,0,0,1-10-10A10,10,0,0,1,2266-10Zm20,0a10,10,0,0,1,10,10,10,10,0,0,1-10,10,10,10,0,0,1-10-10A10,10,0,0,1,2286-10Zm20,0a10,10,0,0,1,10,10,10,10,0,0,1-10,10,10,10,0,0,1-10-10A10,10,0,0,1,2306-10Zm20,0a10,10,0,0,1,10,10,10,10,0,0,1-10,10,10,10,0,0,1-10-10A10,10,0,0,1,2326-10Zm20,0a10,10,0,0,1,10,10,10,10,0,0,1-10,10,10,10,0,0,1-10-10A10,10,0,0,1,2346-10Zm20,0a10,10,0,0,1,10,10,10,10,0,0,1-10,10,10,10,0,0,1-10-10A10,10,0,0,1,2366-10Zm20,0a10,10,0,0,1,10,10,10,10,0,0,1-10,10,10,10,0,0,1-10-10A10,10,0,0,1,2386-10Zm20,0a10,10,0,0,1,10,10,10,10,0,0,1-10,10,10,10,0,0,1-10-10A10,10,0,0,1,2406-10Zm20,0a10,10,0,0,1,10,10,10,10,0,0,1-10,10,10,10,0,0,1-10-10A10,10,0,0,1,2426-10Zm20,0a10,10,0,0,1,10,10,10,10,0,0,1-10,10,10,10,0,0,1-10-10A10,10,0,0,1,2446-10Zm20,0a10,10,0,0,1,10,10,10,10,0,0,1-10,10,10,10,0,0,1-10-10A10,10,0,0,1,2466-10Zm20,0a10,10,0,0,1,10,10,10,10,0,0,1-10,10,10,10,0,0,1-10-10A10,10,0,0,1,2486-10Zm20,0a10,10,0,0,1,10,10,10,10,0,0,1-10,10,10,10,0,0,1-10-10A10,10,0,0,1,2506-10Zm20,0a10,10,0,0,1,10,10,10,10,0,0,1-10,10,10,10,0,0,1-10-10A10,10,0,0,1,2526-10Zm20,0a10,10,0,0,1,10,10,10,10,0,0,1-10,10,10,10,0,0,1-10-10A10,10,0,0,1,2546-10Z"/>
</svg>
